<?xml version="1.0" encoding="UTF-8" standalone="no"?>
<svg
   version="1.1"
   id="Layer_1"
   x="0px"
   y="0px"
   viewBox="0 0 450.00195 136.397"
   xml:space="preserve"
   webcrx=""
   width="450.00195"
   height="136.397"
   xmlns="http://www.w3.org/2000/svg"
   xmlns:svg="http://www.w3.org/2000/svg"><defs
   id="defs99" />


<g
   id="g99"
   style="display:inline"
   transform="translate(-24.99804,-181.801)">
	<path
   style="clip-rule:evenodd;fill:#1068b2;fill-rule:evenodd"
   d="m 194.036,182.435 c 6.54,0 11.827,4.784 11.827,10.693 0,5.926 -5.287,10.71 -11.827,10.71 -6.532,0 -11.842,-4.784 -11.842,-10.71 0,-5.909 5.31,-10.693 11.842,-10.693 z m -9.892,31.899 h 20.009 v 66.779 h -20.009 z"
   id="path92" />
	<path
   style="clip-rule:evenodd;fill:#f26b21;fill-rule:evenodd"
   d="m 74.234,251.943 c -2.371,22.056 -31.754,20.803 -27.777,-8.326 1.227,-8.981 7.29,-17.458 18.03,-14.596 8.747,2.336 10.904,12.16 9.747,22.922 z m -0.186,19.773 c 2.169,25.866 -18.715,29.752 -36.346,23.089 -2.313,-0.875 -4.459,-2.285 -6.563,-3.018 l -0.008,16.863 c 1.857,2.449 12.714,3.869 16.558,4.099 17.602,1.041 35.235,-3.165 43.149,-19.289 5.31,-10.8 4.036,-24.616 4.036,-37.657 0,-13.913 0,-27.835 0,-41.761 l -20.749,0.011 -0.008,7.885 c -2.12,-1.557 -4.43,-7.59 -14.427,-9.123 -6.94,-1.062 -14.357,0.541 -19.373,3.692 -9.237,5.821 -15.226,16.633 -15.318,32.197 -0.085,15.375 5.478,26.698 15.566,31.625 5.553,2.704 13.56,3.513 20.067,1.626 9.08,-2.641 11.403,-8.559 13.416,-10.239 z"
   id="path93" />
	<path
   style="clip-rule:evenodd;fill:#1068b2;fill-rule:evenodd"
   d="m 376.627,251.602 c -0.726,4.849 -2.48,9.134 -4.966,11.654 -2.467,2.513 -7.671,4.494 -12.74,3.316 -10.601,-2.429 -10.614,-14.496 -10.06,-22.934 0.6,-9.072 7.387,-17.024 17.73,-14.733 8.969,1.998 11.542,12.491 10.036,22.697 z m -48.259,29.783 h 20.748 v -7.866 c 1.499,0.859 4.201,7.387 14.392,9.091 7.007,1.168 14.651,-0.371 19.677,-3.636 9.258,-6.041 14.772,-16.45 15.075,-32.196 0.31,-14.974 -4.948,-27.296 -15.316,-31.96 -8.464,-3.825 -20.755,-3.075 -28.095,3.266 -2.386,2.063 -5.263,5.863 -5.699,6.135 -0.16,-6.42 0.436,-39.577 -0.198,-42.418 h -20.404 c -0.627,2.719 -0.18,43.082 -0.18,49.501 0,16.701 0,33.387 0,50.083 z"
   id="path94" />
	<path
   style="clip-rule:evenodd;fill:#1068b2;fill-rule:evenodd"
   d="m 264.714,251.602 c -2.775,19.918 -21.722,18.64 -26.464,7.349 -1.683,-4.036 -1.613,-10.543 -1.29,-15.349 0.588,-9.089 7.464,-17.04 17.78,-14.686 8.883,2.036 11.446,12.213 9.974,22.686 z m -48.243,29.783 20.732,-0.008 0.021,-7.845 c 1.716,1.168 1.365,2.52 5.867,5.723 12.628,8.973 42.551,3.932 43.263,-32.476 0.306,-14.974 -4.921,-27.42 -15.5,-32.03 -9.963,-4.334 -23.8,-2.527 -30.821,6.159 -0.707,0.879 -1.989,2.795 -2.793,3.312 l -0.037,-42.326 -20.732,-0.092 z"
   id="path95" />
	<path
   style="clip-rule:evenodd;fill:#1068b2;fill-rule:evenodd"
   d="m 439.307,266.889 c -11.668,0 -15.978,-7.315 -15.96,-19.144 0.002,-11.306 4.71,-19.154 15.96,-19.154 12.161,0 14.438,9.806 14.438,20.114 0,10.046 -4.141,18.184 -14.438,18.184 z m -36.848,-13.931 c 2.107,20.719 18.446,32.197 41.483,29.727 20.49,-2.196 33,-17.53 30.807,-40.421 -4.09,-42.747 -77.541,-40.885 -72.29,10.694 z"
   id="path96" />
	<path
   style="clip-rule:evenodd;fill:#f26b21;fill-rule:evenodd"
   d="m 124.194,251.943 c -2.679,-25.738 17.529,-26.351 24.976,-20.265 7.284,5.958 8.91,31.734 -5.94,34.893 -5.059,1.08 -10.981,-0.274 -13.825,-2.883 -3.057,-2.808 -4.662,-6.453 -5.211,-11.745 z m 10.765,-39.188 c -21.036,2.096 -33.897,16.088 -31.931,39.329 1.762,21.108 17.717,32.677 40.47,30.678 21.099,-1.842 33.54,-16.603 31.99,-39.518 -1.419,-20.738 -18.027,-32.727 -40.529,-30.489 z"
   id="path97" />
	<path
   style="fill:#231f20"
   d="m 366.332,313.244 c 0,-1.369 0.433,-2.526 1.315,-3.51 0.875,-0.98 1.919,-1.471 3.133,-1.471 1.232,0 2.29,0.49 3.157,1.471 0.877,0.984 1.318,2.141 1.318,3.51 0,1.372 -0.441,2.557 -1.318,3.52 -0.867,0.955 -1.925,1.434 -3.157,1.434 -1.214,0 -2.259,-0.479 -3.133,-1.434 -0.881,-0.963 -1.315,-2.148 -1.315,-3.52 z m 33.573,-2.757 v 5.953 c -2.906,1.173 -5.559,1.757 -7.981,1.757 -4.152,0 -7.481,-1.239 -9.96,-3.734 -2.486,-2.497 -3.736,-5.794 -3.736,-9.897 0,-4.005 1.263,-7.32 3.772,-9.913 2.509,-2.614 5.703,-3.906 9.587,-3.906 2.504,0 5.156,0.561 7.963,1.708 v 6.159 c -2.052,-1.17 -4.063,-1.761 -6.046,-1.761 -2.227,0 -3.995,0.693 -5.329,2.076 -1.339,1.398 -2.005,3.252 -2.005,5.57 0,2.339 0.656,4.24 1.95,5.678 1.309,1.437 3.013,2.145 5.128,2.145 1.571,0 3.788,-0.609 6.657,-1.835 z m 15.571,-19.74 c 3.694,0 6.843,1.204 9.422,3.626 2.572,2.433 3.861,5.806 3.861,10.136 0,4.357 -1.305,7.723 -3.929,10.106 -2.619,2.393 -5.739,3.582 -9.354,3.582 -3.927,0 -7.128,-1.266 -9.626,-3.817 -2.494,-2.551 -3.738,-5.861 -3.738,-9.927 0,-4.142 1.268,-7.472 3.819,-9.97 2.538,-2.495 5.728,-3.736 9.545,-3.736 z m 0.013,22.544 c 3.546,0 5.326,-3.002 5.326,-8.992 0,-5.722 -1.781,-8.585 -5.326,-8.585 -1.699,0 -3.028,0.749 -3.997,2.263 -0.956,1.505 -1.444,3.673 -1.444,6.503 0,5.878 1.82,8.811 5.441,8.811 z m 24.252,-21.982 v 3.371 c 2.514,-2.624 5.251,-3.932 8.203,-3.932 4.066,0 6.898,1.85 8.509,5.598 2.861,-3.748 5.955,-5.598 9.315,-5.598 2.719,0 4.929,0.916 6.658,2.758 1.712,1.844 2.574,4.243 2.574,7.207 v 16.921 h -7.431 v -15.453 c 0,-1.869 -0.394,-3.311 -1.156,-4.351 -0.755,-1.038 -1.823,-1.549 -3.191,-1.549 -2.175,0 -4.125,1.495 -5.859,4.464 v 16.889 h -7.431 v -15.626 c 0,-1.84 -0.405,-3.267 -1.242,-4.244 -0.81,-0.988 -1.911,-1.483 -3.288,-1.483 -1.934,0 -3.827,1.217 -5.663,3.654 v 17.699 h -7.431 v -26.325 z"
   id="path98" />
	<path
   style="clip-rule:evenodd;fill:#1068b2;fill-rule:evenodd"
   d="m 306.244,182.435 c 6.538,0 11.832,4.784 11.832,10.693 0,5.926 -5.294,10.71 -11.832,10.71 -6.535,0 -11.84,-4.784 -11.84,-10.71 0,-5.909 5.305,-10.693 11.84,-10.693 z m -9.887,31.899 h 20.002 v 66.779 h -20.002 z"
   id="path99" />
</g>
</svg>
